<svg id="visual" viewBox="0 0 900 600" width="900" height="600" xmlns="http://www.w3.org/2000/svg" xmlns:xlink="http://www.w3.org/1999/xlink" version="1.1"><rect x="0" y="0" width="900" height="600" fill="#001220"></rect><path d="M0 426L21.5 416.7C43 407.3 86 388.7 128.8 388.8C171.7 389 214.3 408 257.2 415.3C300 422.7 343 418.3 385.8 416.8C428.7 415.3 471.3 416.7 514.2 408.5C557 400.3 600 382.7 642.8 385C685.7 387.3 728.3 409.7 771.2 418.3C814 427 857 422 878.5 419.5L900 417L900 601L878.5 601C857 601 814 601 771.2 601C728.3 601 685.7 601 642.8 601C600 601 557 601 514.2 601C471.3 601 428.7 601 385.8 601C343 601 300 601 257.2 601C214.3 601 171.7 601 128.8 601C86 601 43 601 21.5 601L0 601Z" fill="#6600ff"></path><path d="M0 411L21.5 409.7C43 408.3 86 405.7 128.8 414.3C171.7 423 214.3 443 257.2 445.7C300 448.3 343 433.7 385.8 434.8C428.7 436 471.3 453 514.2 454.7C557 456.3 600 442.7 642.8 440.8C685.7 439 728.3 449 771.2 455.7C814 462.3 857 465.7 878.5 467.3L900 469L900 601L878.5 601C857 601 814 601 771.2 601C728.3 601 685.7 601 642.8 601C600 601 557 601 514.2 601C471.3 601 428.7 601 385.8 601C343 601 300 601 257.2 601C214.3 601 171.7 601 128.8 601C86 601 43 601 21.5 601L0 601Z" fill="#2856ff"></path><path d="M0 492L21.5 486C43 480 86 468 128.8 466.2C171.7 464.3 214.3 472.7 257.2 474.3C300 476 343 471 385.8 470.7C428.7 470.3 471.3 474.7 514.2 472.3C557 470 600 461 642.8 463.5C685.7 466 728.3 480 771.2 486.2C814 492.3 857 490.7 878.5 489.8L900 489L900 601L878.5 601C857 601 814 601 771.2 601C728.3 601 685.7 601 642.8 601C600 601 557 601 514.2 601C471.3 601 428.7 601 385.8 601C343 601 300 601 257.2 601C214.3 601 171.7 601 128.8 601C86 601 43 601 21.5 601L0 601Z" fill="#0079ff"></path><path d="M0 486L21.5 494.7C43 503.3 86 520.7 128.8 524.5C171.7 528.3 214.3 518.7 257.2 515.8C300 513 343 517 385.8 517.8C428.7 518.7 471.3 516.3 514.2 514.8C557 513.3 600 512.7 642.8 511.2C685.7 509.7 728.3 507.3 771.2 508.8C814 510.3 857 515.7 878.5 518.3L900 521L900 601L878.5 601C857 601 814 601 771.2 601C728.3 601 685.7 601 642.8 601C600 601 557 601 514.2 601C471.3 601 428.7 601 385.8 601C343 601 300 601 257.2 601C214.3 601 171.7 601 128.8 601C86 601 43 601 21.5 601L0 601Z" fill="#1394fe"></path><path d="M0 546L21.5 550.5C43 555 86 564 128.8 561.5C171.7 559 214.3 545 257.2 537.3C300 529.7 343 528.3 385.8 530.7C428.7 533 471.3 539 514.2 546.7C557 554.3 600 563.7 642.8 568.5C685.7 573.3 728.3 573.7 771.2 572.3C814 571 857 568 878.5 566.5L900 565L900 601L878.5 601C857 601 814 601 771.2 601C728.3 601 685.7 601 642.8 601C600 601 557 601 514.2 601C471.3 601 428.7 601 385.8 601C343 601 300 601 257.2 601C214.3 601 171.7 601 128.8 601C86 601 43 601 21.5 601L0 601Z" fill="#4facf7"></path></svg>