<svg id="visual" viewBox="0 0 900 600" width="900" height="600" xmlns="http://www.w3.org/2000/svg" xmlns:xlink="http://www.w3.org/1999/xlink" version="1.1"><path d="M0 169L13.7 180C27.3 191 54.7 213 82 215C109.3 217 136.7 199 163.8 181C191 163 218 145 245.2 161C272.3 177 299.7 227 327 247C354.3 267 381.7 257 409 249C436.3 241 463.7 235 491 229C518.3 223 545.7 217 573 211C600.3 205 627.7 199 654.8 214C682 229 709 265 736.2 271C763.3 277 790.7 253 818 234C845.3 215 872.7 201 886.3 194L900 187L900 0L886.3 0C872.7 0 845.3 0 818 0C790.7 0 763.3 0 736.2 0C709 0 682 0 654.8 0C627.7 0 600.3 0 573 0C545.7 0 518.3 0 491 0C463.7 0 436.3 0 409 0C381.7 0 354.3 0 327 0C299.7 0 272.3 0 245.2 0C218 0 191 0 163.8 0C136.7 0 109.3 0 82 0C54.7 0 27.3 0 13.7 0L0 0Z" fill="#6198ff"></path><path d="M0 343L13.7 333C27.3 323 54.7 303 82 284C109.3 265 136.7 247 163.8 244C191 241 218 253 245.2 273C272.3 293 299.7 321 327 331C354.3 341 381.7 333 409 331C436.3 329 463.7 333 491 339C518.3 345 545.7 353 573 343C600.3 333 627.7 305 654.8 305C682 305 709 333 736.2 345C763.3 357 790.7 353 818 332C845.3 311 872.7 273 886.3 254L900 235L900 185L886.3 192C872.7 199 845.3 213 818 232C790.7 251 763.3 275 736.2 269C709 263 682 227 654.8 212C627.7 197 600.3 203 573 209C545.7 215 518.3 221 491 227C463.7 233 436.3 239 409 247C381.7 255 354.3 265 327 245C299.7 225 272.3 175 245.2 159C218 143 191 161 163.8 179C136.7 197 109.3 215 82 213C54.7 211 27.3 189 13.7 178L0 167Z" fill="#3c80ff"></path><path d="M0 379L13.7 375C27.3 371 54.7 363 82 352C109.3 341 136.7 327 163.8 327C191 327 218 341 245.2 357C272.3 373 299.7 391 327 394C354.3 397 381.7 385 409 390C436.3 395 463.7 417 491 425C518.3 433 545.7 427 573 408C600.3 389 627.7 357 654.8 358C682 359 709 393 736.2 403C763.3 413 790.7 399 818 383C845.3 367 872.7 349 886.3 340L900 331L900 233L886.3 252C872.7 271 845.3 309 818 330C790.7 351 763.3 355 736.2 343C709 331 682 303 654.8 303C627.7 303 600.3 331 573 341C545.7 351 518.3 343 491 337C463.7 331 436.3 327 409 329C381.7 331 354.3 339 327 329C299.7 319 272.3 291 245.2 271C218 251 191 239 163.8 242C136.7 245 109.3 263 82 282C54.7 301 27.3 321 13.7 331L0 341Z" fill="#0066ff"></path><path d="M0 541L13.7 530C27.3 519 54.7 497 82 489C109.3 481 136.7 487 163.8 489C191 491 218 489 245.2 494C272.3 499 299.7 511 327 511C354.3 511 381.7 499 409 499C436.3 499 463.7 511 491 513C518.3 515 545.7 507 573 502C600.3 497 627.7 495 654.8 501C682 507 709 521 736.2 521C763.3 521 790.7 507 818 504C845.3 501 872.7 509 886.3 513L900 517L900 329L886.3 338C872.7 347 845.3 365 818 381C790.7 397 763.3 411 736.2 401C709 391 682 357 654.8 356C627.7 355 600.3 387 573 406C545.7 425 518.3 431 491 423C463.7 415 436.3 393 409 388C381.7 383 354.3 395 327 392C299.7 389 272.3 371 245.2 355C218 339 191 325 163.8 325C136.7 325 109.3 339 82 350C54.7 361 27.3 369 13.7 373L0 377Z" fill="#0059dd"></path><path d="M0 601L13.7 601C27.3 601 54.7 601 82 601C109.3 601 136.7 601 163.8 601C191 601 218 601 245.2 601C272.3 601 299.7 601 327 601C354.3 601 381.7 601 409 601C436.3 601 463.7 601 491 601C518.3 601 545.7 601 573 601C600.3 601 627.7 601 654.8 601C682 601 709 601 736.2 601C763.3 601 790.7 601 818 601C845.3 601 872.7 601 886.3 601L900 601L900 515L886.3 511C872.7 507 845.3 499 818 502C790.7 505 763.3 519 736.2 519C709 519 682 505 654.8 499C627.7 493 600.3 495 573 500C545.7 505 518.3 513 491 511C463.7 509 436.3 497 409 497C381.7 497 354.3 509 327 509C299.7 509 272.3 497 245.2 492C218 487 191 489 163.8 487C136.7 485 109.3 479 82 487C54.7 495 27.3 517 13.7 528L0 539Z" fill="#004cbb"></path></svg>